<?xml version="1.0" encoding="iso-8859-1"?>
<!-- Generator: Adobe Illustrator 19.0.0, SVG Export Plug-In . SVG Version: 6.00 Build 0)  -->
<svg version="1.1" id="Capa_1" xmlns="http://www.w3.org/2000/svg" xmlns:xlink="http://www.w3.org/1999/xlink" x="0px" y="0px"
	 viewBox="0 0 503.873 503.873" style="enable-background:new 0 0 503.873 503.873;" xml:space="preserve">
<g>
	<g>
		<path d="M168.229,313.702c21.13-13.003,34.946-35.759,34.946-62.578c0-40.635-32.508-73.143-73.143-73.143
			c-40.635,0-73.143,32.508-73.143,73.143c0,26.819,13.816,49.575,34.946,62.578C38.197,329.956,0,379.53,0,438.044
			c0,71.517,61.765,64.203,84.521,65.829c6.502,0,82.895,0,90.21,0c43.073,0,84.521-4.876,84.521-65.829
			C260.064,379.53,221.054,329.956,168.229,313.702z M73.143,251.937c0-31.695,25.194-56.889,56.889-56.889
			c31.695,0,56.889,25.194,56.889,56.889s-25.194,56.889-56.889,56.889C99.149,308.013,73.143,282.819,73.143,251.937z
			 M175.543,487.619c-6.502,0-83.708,0-90.21,0c-29.257-0.813-68.267,2.438-68.267-49.575c0-62.578,51.2-113.778,113.778-113.778
			s113.778,51.2,113.778,113.778C243.81,480.305,222.679,487.619,175.543,487.619z"/>
	</g>
</g>
<g>
	<g>
		<path d="M463.238,0h-243.81c-22.756,0-40.635,17.879-40.635,40.635v81.27c0,22.756,17.879,40.635,40.635,40.635h9.752
			l-14.629,59.327l88.584-59.327h160.102c22.756,0,40.635-17.879,40.635-40.635v-81.27C503.873,17.879,485.181,0,463.238,0z
			 M487.619,121.905c0,13.816-10.565,24.381-24.381,24.381H298.26l-57.702,38.197l9.752-38.197h-30.883
			c-13.816,0-24.381-10.565-24.381-24.381v-81.27c0-13.816,10.565-24.381,24.381-24.381h243.81
			c13.816,0,24.381,10.565,24.381,24.381V121.905z"/>
	</g>
</g>
<g>
	<g>
		<path d="M341.333,48.762c-17.879,0-32.508,14.629-32.508,32.508c0,17.879,14.629,32.508,32.508,32.508
			s32.508-14.629,32.508-32.508C373.841,63.391,359.213,48.762,341.333,48.762z M341.333,97.524c-8.94,0-16.254-7.314-16.254-16.254
			c0-8.94,7.314-16.254,16.254-16.254c8.94,0,16.254,7.314,16.254,16.254C357.587,90.21,350.273,97.524,341.333,97.524z"/>
	</g>
</g>
<g>
	<g>
		<path d="M430.73,48.762c-17.879,0-32.508,14.629-32.508,32.508c0,17.879,14.629,32.508,32.508,32.508
			c17.879,0,32.508-14.629,32.508-32.508C463.238,63.391,448.61,48.762,430.73,48.762z M430.73,97.524
			c-8.94,0-16.254-7.314-16.254-16.254c0-8.94,7.314-16.254,16.254-16.254c8.94,0,16.254,7.314,16.254,16.254
			C446.984,90.21,439.67,97.524,430.73,97.524z"/>
	</g>
</g>
<g>
	<g>
		<path d="M251.937,48.762c-17.879,0-32.508,14.629-32.508,32.508c0,17.879,14.629,32.508,32.508,32.508
			c17.879,0,32.508-14.629,32.508-32.508C284.444,63.391,269.816,48.762,251.937,48.762z M251.937,97.524
			c-8.94,0-16.254-7.314-16.254-16.254c0-8.94,7.314-16.254,16.254-16.254c8.94,0,16.254,7.314,16.254,16.254
			C268.19,90.21,260.876,97.524,251.937,97.524z"/>
	</g>
</g>
<g>
</g>
<g>
</g>
<g>
</g>
<g>
</g>
<g>
</g>
<g>
</g>
<g>
</g>
<g>
</g>
<g>
</g>
<g>
</g>
<g>
</g>
<g>
</g>
<g>
</g>
<g>
</g>
<g>
</g>
</svg>
